<svg width="219" height="114" viewBox="0 0 219 114" fill="none" xmlns="http://www.w3.org/2000/svg">
<path d="M16.8501 80.4975C16.8399 80.8644 16.6011 81.124 16.1336 81.2763L15.2928 80.8906L15.0508 80.8935L14.7622 80.677L14.4102 80.6813L14.1408 80.2446L13.9195 80.1373L13.6274 79.6348L13.2263 79.2216L13.2241 79.0457L13.0463 78.8938L12.998 78.5424L12.7088 78.2819L12.2342 77.2536L12.0333 77.014L11.9378 76.3992L11.6472 76.0287L11.1844 75.9683L10.682 76.2605L10.5706 76.1518L10.2213 76.3761L10.1084 76.1354C10.0353 76.151 9.92535 76.1597 9.7787 76.1615C9.61738 76.1634 9.49996 76.1575 9.42646 76.1438L9.25047 76.1459L8.79145 76.3935L8.28469 76.3337L8.19669 76.3348L7.84714 76.5371L7.55981 76.4306C7.28117 76.434 7.07549 76.4071 6.94279 76.3501L6.8328 76.3514L6.26406 76.6224L6.04112 76.3831L5.64381 76.2779L5.55662 76.345C5.23917 76.7742 5.00819 77.0777 4.86368 77.2555L4.51278 77.3478C3.96532 78.1612 3.61863 78.5981 3.47269 78.6586L3.38496 78.6817L2.69148 79.5482L2.60349 79.5492L2.17184 80.2366L1.34154 80.7087C1.19524 80.7398 1.07809 80.7559 0.990101 80.757C0.711456 80.7604 0.446223 80.661 0.194403 80.4587L0.451675 79.9055L0.447649 79.5755L0.534301 79.4645L0.57293 79.024L1.25381 78.9277L1.42845 78.8155C1.60319 78.7107 1.70397 78.5555 1.73079 78.3498C1.99388 78.2733 2.15341 78.1246 2.20939 77.9039C2.60286 77.6938 2.85557 77.368 2.96752 76.9266L3.33989 76.7901L3.87992 75.9694C3.76062 75.8095 3.67013 75.6053 3.60842 75.3567L4.06582 74.9771L4.06073 74.5591L4.91947 74.6146L5.13811 74.502C5.2084 74.2517 5.3529 74.074 5.57164 73.9686L5.61053 73.5501L6.06955 73.3025C6.11319 73.2726 6.1934 73.235 6.31019 73.1896L6.30858 73.0576C6.30697 72.9256 6.33487 72.8079 6.39228 72.7045C6.69757 72.4808 6.85522 72.1782 6.86524 71.7967L7.17241 71.7269L7.27999 71.5276L7.43371 71.5037L7.84201 70.7067L7.95254 70.7493L8.12746 70.6592L8.12021 70.0652L8.2742 70.0634C8.63601 69.6629 8.8162 69.404 8.81477 69.2867L8.92368 69.1974L8.80967 68.8687C9.15645 68.4392 9.43975 68.2157 9.65955 68.1983L10.0732 67.8413L10.5631 68.3193L11.1831 68.6418L11.256 69.2129C11.3304 69.3 11.3902 69.3873 11.4353 69.4748C11.6436 69.7216 11.7641 69.9768 11.7966 70.2404L11.9353 70.7888L12.2712 71.2687L12.478 71.9922L12.5263 72.3437L12.9282 72.8228L12.8421 72.9779L13.02 73.1297L13.0253 73.5697L13.0733 73.8991C13.032 74.1196 13.011 74.2006 13.0103 74.1419L13.1216 74.2506C13.1216 74.2506 13.1663 74.3087 13.2558 74.4249C13.4462 74.4079 13.5853 74.3842 13.6729 74.3538L14.3329 74.3458C14.4506 74.3737 14.5387 74.3873 14.5974 74.3866C14.6854 74.3855 14.773 74.3551 14.8603 74.2953C14.9621 74.2208 15.1156 74.1822 15.3209 74.1797C15.4676 74.1779 15.6885 74.2486 15.9836 74.3917L16.6441 74.4276C16.6748 74.5446 16.6906 74.6324 16.6913 74.691C16.694 74.911 16.586 75.081 16.3675 75.201L16.0362 75.0951L15.4256 75.5425L14.9188 75.4827L14.7002 75.5954L14.2167 75.6453L14.2157 75.5573L13.6453 75.6963L13.6249 75.8285L13.6751 76.334L13.9659 76.7264L14.0147 77.1219L14.5293 77.8196L14.4882 78.0622L14.6886 78.2577L15.2265 79.0652L15.6051 79.4346L15.6952 79.6096L16.0936 79.8027L16.2519 80.1528L16.8501 80.4975ZM11.3441 74.6243L11.3221 74.6245L11.0771 74.3855L11.3384 74.1623C11.2198 74.0611 11.1593 73.9078 11.1568 73.7025L11.0017 73.6164L10.8807 72.7158L10.6122 72.345L10.5416 71.9719L10.4966 71.8844L10.3426 71.8863L10.2669 71.0951L10.0655 70.8116L9.95493 70.7689L9.88786 70.6817L9.80175 70.8368L9.28184 71.5032L9.11041 71.8793L8.67528 72.2806L8.59211 72.6777L8.08883 72.9038C8.02087 73.3447 7.80474 73.6627 7.44042 73.8578L7.2918 74.2997L7.00931 74.5891L7.2073 74.5867C7.47235 74.6715 7.69287 74.7128 7.86886 74.7107L7.95685 74.7096C8.04431 74.6645 8.13203 74.6414 8.22003 74.6404C8.32269 74.6391 8.44037 74.667 8.57307 74.7241L8.66134 74.745C8.74915 74.7293 8.88838 74.7202 9.07904 74.7179C9.31369 74.715 9.48976 74.7202 9.60727 74.7335L10.3761 74.6361L10.8853 74.8939C11.1334 74.7882 11.2788 74.6837 11.3215 74.5805C11.3217 74.5952 11.3291 74.6024 11.3438 74.6023C11.3438 74.6023 11.3439 74.6096 11.3441 74.6243ZM28.344 78.4212L28.0913 79.3483L27.9185 79.6145C27.6882 79.9693 27.463 80.148 27.243 80.1507C27.067 80.1529 26.8309 80.0311 26.5345 79.7853L26.0868 79.1528L25.884 78.7592L25.7911 78.3643L25.5851 77.7068L25.5733 76.7388L25.4971 75.9037L25.5575 75.4409L25.5118 75.3095L24.9713 76.0861L24.9053 76.0869L24.8841 76.1532L24.5174 76.7517L23.9095 77.4192L23.4553 78.0628L22.977 78.5307C22.8478 78.7669 22.6963 78.9741 22.5225 79.1522L22.0863 79.4656L21.8266 79.8208L21.3445 79.9807L21.1495 80.2251L20.6666 80.319L20.2736 80.5658L20.2073 80.5446L20.1647 80.6551L19.4816 80.5754L18.6607 80.0134C18.4377 79.7668 18.2951 79.4972 18.2328 79.2046C18.262 79.1895 18.291 79.1672 18.32 79.1375C18.3488 79.0931 18.3704 79.0635 18.3849 79.0487C18.3701 79.0342 18.289 78.9985 18.1416 78.9417L17.9383 78.5041L18.0464 78.3488L17.9332 78.0861L18.0394 77.7768L17.9906 77.3814L18.1368 76.7416L18.1285 76.0596L18.28 75.8597L18.2744 75.3978L18.4249 75.1099L18.4649 74.7794L18.5083 74.7349L18.5048 74.4489L18.7205 74.0942L18.7608 73.7857L18.8901 73.5641L18.9545 73.4313L19.036 72.9023L19.1844 72.4385L19.293 72.3271L19.3335 72.0406L19.6157 71.7291C19.6442 71.6555 19.7083 71.5007 19.8081 71.2648L20.3551 71.0161L20.7025 70.6378L21.7109 70.3395C21.8723 70.3375 21.9968 70.3287 22.0846 70.3129L22.2397 70.399L22.2816 70.2225L22.787 70.1723L22.9638 70.2362L23.1175 70.2123L23.2508 70.3207L23.6691 70.3376L23.7563 70.2705L23.8673 70.3572L24.0876 70.3765L24.0894 70.5305L24.1782 70.5954L24.6193 70.678L24.9538 71.048L25.3978 71.3726L25.5105 71.5912L25.5328 71.613L25.617 71.3039L25.7455 71.0163L25.6953 70.5109L25.7721 69.5859L25.6358 69.2355L25.8085 68.9694L25.7176 68.7285L25.7761 68.1117L25.7036 67.5846L25.5038 67.433L25.8075 67.0773L25.8045 66.8353C25.8015 66.586 25.7028 66.3158 25.5086 66.0248L25.6406 66.0232L25.8783 65.6683C26.0977 65.6216 26.2954 65.5972 26.4714 65.5951C26.6767 65.5926 26.8459 65.6345 26.979 65.7209C27.2145 65.7913 27.3362 66.1419 27.3438 66.7725L27.2339 66.7738L27.2129 66.8621L27.4131 67.0357L27.2854 67.3893L27.4885 67.8048L27.3801 67.9382C27.4253 68.0403 27.4486 68.1427 27.4498 68.2453C27.4511 68.348 27.4304 68.4582 27.3879 68.5761L27.4995 68.7068C27.5295 68.7651 27.5453 68.8602 27.5469 68.9922C27.5489 69.1535 27.514 69.3006 27.4423 69.4335C27.3803 70.3583 27.3212 70.9311 27.2653 71.1518C27.2805 71.1956 27.2886 71.2615 27.2897 71.3495C27.2911 71.4668 27.2706 71.5918 27.2282 71.7243L27.2299 71.8563C27.232 72.0323 27.2051 72.2306 27.1491 72.4513L27.0912 73.1121L26.9833 73.2894L27.0517 73.4866L26.9458 73.8179L27.0592 74.1025L26.8916 74.7866L27.0077 75.2912L26.9452 75.578L26.9946 76.0175C27.0398 76.1196 27.063 76.2146 27.0641 76.3026C27.065 76.376 27.0584 76.4347 27.0442 76.4789L27.1778 76.6093L27.0072 77.0514L27.1888 77.5112L27.1244 77.644L27.1921 77.7752L27.1277 77.908L27.1945 77.9732L27.3946 78.1467L27.7691 78.1862L28.344 78.4212ZM25.0008 73.0936L24.9123 73.0506C24.8089 72.9932 24.7124 72.8991 24.6228 72.7681C24.5478 72.6371 24.4729 72.506 24.398 72.3749C24.2508 72.3327 24.125 72.2388 24.0205 72.0934L23.8885 72.0951L23.4896 71.8579L22.9823 71.7541L22.4991 71.826L21.9948 71.9641L21.8392 71.834L21.664 71.9022L21.6651 71.9902L21.4676 72.0366C21.3385 72.2728 21.1357 72.4807 20.8592 72.66L20.6878 73.0362L20.5134 73.1703L20.3637 73.5242L20.3065 74.2509L20.1107 74.4293L20.1155 74.8253L19.8974 74.982L19.9479 75.5094L19.5828 76.2399L19.5211 76.5927L19.484 77.1652L19.619 77.4055L19.4679 77.6494L19.6018 77.8018L19.3867 78.2004L19.4991 78.3971L19.5903 78.66L19.7233 78.7464L19.8773 78.7445L20.0732 78.5661L20.2494 78.5859L20.6215 78.4274L20.6639 78.2948L21.08 78.1358L21.1224 78.0032L21.3845 77.846L21.3839 77.802L21.9269 77.2234L22.1896 77.1102L22.3181 76.8226L22.6035 76.7751L22.9507 76.3748L22.8841 76.3316L23.0362 76.1758L23.2506 75.7111L23.4462 75.5107L23.5502 75.0254L23.9009 74.9111L24.1386 74.5562L24.2257 74.4891L24.2209 74.0931L24.549 73.9351L25.0008 73.0936ZM49.1285 77.1555C49.0577 77.3618 48.9643 77.5169 48.8482 77.621C48.8062 77.7829 48.7416 77.901 48.6545 77.9754C48.583 78.1229 48.4962 78.2267 48.3943 78.2866L48.3079 78.4196C48.2503 78.5084 48.1702 78.5533 48.0675 78.5546L47.9602 78.7759L47.8062 78.7778L47.6987 78.9771L47.5235 79.0453L47.3934 79.2009L47.2844 79.2902C47.0645 79.2929 46.882 79.3611 46.7369 79.4949C46.5471 79.5705 46.3496 79.6096 46.1443 79.6121C45.939 79.6146 45.733 79.5658 45.5265 79.4657C45.2916 79.4539 45.1739 79.4186 45.1731 79.36L44.8646 79.3197L44.7978 79.2545L44.6626 78.9922L44.4182 78.7971C44.2546 78.6084 44.1644 78.4335 44.1478 78.2724C44.0434 78.127 43.9373 77.8496 43.8296 77.4402L43.6053 77.0909L43.6029 76.8929L43.4409 76.2349L43.4597 75.9706L43.3194 75.2903L43.3786 74.7395L43.2668 74.5869L43.0535 75.1395C42.7786 75.4509 42.6123 75.6436 42.5545 75.7176C42.5112 75.7768 42.4529 75.8069 42.3796 75.8078C42.3649 75.8079 42.3355 75.801 42.2913 75.7868L42.1623 76.0304C42.1478 76.0453 42.1408 76.0747 42.1414 76.1187C42.1425 76.2067 42.1944 76.2574 42.2972 76.2708C42.2683 76.3005 42.1962 76.4041 42.081 76.5815C42.0238 76.6995 41.9734 76.7808 41.93 76.8253L41.8626 76.7161L41.8224 77.0247C41.6335 77.1736 41.5042 77.3952 41.4345 77.6894C41.2902 77.8819 41.0662 78.156 40.7625 78.5117L40.4802 78.8232C40.4069 78.8241 40.3704 78.8392 40.3708 78.8685L40.3713 78.9125C40.2858 79.1189 40.1338 79.2821 39.9153 79.4021L39.6553 79.7353L39.5013 79.7372L38.9758 79.9416C38.5355 79.9176 38.2618 79.7303 38.1549 79.3796L38.1299 79.1379L37.9944 78.8535L37.9915 78.6115L37.8077 77.9757L37.8053 77.7777L37.6706 77.5593L37.7503 76.8763C37.7347 76.8032 37.7261 76.7006 37.7245 76.5686C37.7231 76.4513 37.7295 76.3705 37.7436 76.3264L37.72 76.1946L37.7189 76.1066L37.606 75.866L37.7768 75.4459C37.7461 75.3289 37.6998 75.1388 37.6379 74.8755L37.7015 74.6768L37.7597 74.038L37.578 73.5782L37.6175 73.2037L37.5491 73.0065C37.5339 72.9627 37.4808 72.824 37.39 72.5904L37.2371 72.6803L36.9554 73.0357L36.6944 73.2809L36.1744 73.9473L36.1334 74.1898L35.7643 74.5904L35.614 74.9002L35.4622 75.0781C35.4221 75.4013 35.2636 75.6306 34.9865 75.7659L34.9683 76.0742C34.8814 76.1633 34.7875 76.2817 34.6866 76.4297C34.6004 76.5774 34.5355 76.6662 34.4919 76.6961C34.4627 76.7111 34.4046 76.7558 34.3175 76.8302L34.0581 77.2074C34.0611 77.4567 33.9679 77.6338 33.7785 77.7388L33.7801 77.8708C33.6936 77.9892 33.5777 78.108 33.4325 78.2271L33.4099 78.1834L33.3477 78.4921C33.2304 78.4936 33.1221 78.6342 33.0228 78.9141L32.9579 79.0029C32.9461 79.2378 32.8236 79.4153 32.5903 79.5355L32.2859 79.8252C32.0526 79.9454 31.8994 80.0059 31.826 80.0068C31.4447 80.0115 31.1916 79.6992 31.0666 79.07L30.9727 78.5871C30.9576 78.558 30.9498 78.5141 30.9491 78.4554C30.9478 78.3527 30.9685 78.2498 31.0113 78.1466L30.8962 77.73L30.9359 77.3775L30.8876 77.026C30.9132 76.7177 30.9622 76.5264 31.0346 76.4522C30.9869 76.1448 30.9627 75.969 30.9622 75.9251L30.9574 75.5291C31.0148 75.4257 31.0865 75.2928 31.1725 75.1304L31.0389 75C31.0081 74.8831 30.9927 74.8173 30.9925 74.8026C30.9912 74.6999 31.0771 74.5229 31.25 74.2714L31.0909 73.8553L31.1757 73.5903L31.0359 72.9539L31.0762 72.6454L30.9603 72.1628L30.9783 71.8326L30.7754 71.439C31.0618 70.8635 31.3736 70.5736 31.7109 70.5695C31.8869 70.5674 32.0564 70.6386 32.2196 70.7833L32.2662 71.0028C32.5172 71.1317 32.6442 71.3282 32.6475 71.5922C32.6469 71.5482 32.6268 71.7024 32.5871 72.0549L32.4988 72.034L32.7014 72.4056L32.5715 72.5832L32.5506 72.6714L32.6949 73.6817L32.6614 74.5402L32.5973 74.695L32.6896 75.0459C32.7343 75.104 32.7572 75.1771 32.7583 75.2651C32.7597 75.3824 32.7025 75.5005 32.5866 75.6192C32.5891 75.8245 32.5545 75.9936 32.4828 76.1265L32.5568 76.7857L32.56 77.0496L32.5815 77.0054L32.7111 76.8058L33.0123 76.2521L33.0783 76.2513C33.1663 76.2502 33.2599 76.1097 33.3592 75.8298L33.5081 75.41C33.5363 75.3216 33.6446 75.1809 33.833 74.988L33.9161 74.5909L34.1753 74.1917L34.2595 73.8827C34.3323 73.8378 34.405 73.7856 34.4776 73.726L34.4988 73.6597C34.5421 73.6005 34.7015 73.4446 34.9771 73.1919L35.1083 73.1243L35.1496 72.9037L35.2588 72.8364C35.3284 72.5275 35.5092 72.32 35.8013 72.2137L35.7125 72.1488L35.7999 72.1038C35.7851 72.0893 35.7775 72.0674 35.7771 72.038C35.7768 72.0087 35.7909 71.9645 35.8195 71.9055L36.1696 71.7472L36.2313 71.3944L36.4733 71.3915C36.4731 71.3768 36.4872 71.3253 36.5154 71.237L36.9511 70.8796C37.1557 70.8185 37.2947 70.7874 37.368 70.7865C37.544 70.7844 37.7866 70.8328 38.0958 70.9317L38.3195 71.237L38.4081 71.2799L38.5213 71.5425L38.8344 71.9567L38.8379 72.2427L39.0385 72.4603L39.0425 72.7903C39.2082 73.1403 39.2925 73.4399 39.2955 73.6892L39.2328 73.954L39.3693 74.3264L39.1303 74.5713L39.2242 75.0542L39.2038 75.1865L39.1831 75.2967C39.1556 75.4437 39.1423 75.5539 39.1432 75.6272C39.1441 75.7006 39.1825 75.8468 39.2585 76.0659L39.1955 76.3086L39.2652 76.6158L39.2 76.6826C39.2319 76.8876 39.2801 77.2317 39.3446 77.7149L39.3237 77.8032L40.0183 77.0247L40.2332 76.604C40.2907 76.5153 40.3844 76.3748 40.514 76.1826L40.5135 76.1386C40.5693 75.9032 40.6627 75.7407 40.7936 75.6511C40.7925 75.5631 40.8645 75.4522 41.0095 75.3184L41.1842 75.2063C41.2398 74.9563 41.3913 74.7491 41.6386 74.5847L41.7449 74.2754L41.9396 74.009L42.1569 73.7863C42.2877 73.6821 42.3884 73.5195 42.459 73.2986L42.6318 73.0325L42.7157 72.7014L42.9561 72.5665L43.1943 72.2556L43.4299 71.7247C43.3712 71.7254 43.3417 71.7111 43.3413 71.6817C43.3413 71.6817 43.3557 71.6522 43.3843 71.5932L43.5366 71.4593L43.7083 71.1052C43.9566 71.0142 44.0954 70.9685 44.1247 70.9681C44.1247 70.9681 44.1542 70.9824 44.2132 71.011L44.6095 71.0282L44.9633 71.1779L45.2756 71.5261L45.3453 71.8333L45.3263 72.0755L45.2174 72.1649L44.981 72.6298L44.8992 73.1368C44.9734 73.2093 45.0117 73.3408 45.014 73.5315C44.9563 73.6055 44.9281 73.7012 44.9295 73.8185L44.8437 73.9956C44.8739 74.0685 44.89 74.1857 44.892 74.347C44.8936 74.479 44.8874 74.5744 44.8735 74.6333L44.7868 74.7443L44.8767 74.8972L44.7251 75.0971C44.8131 75.096 44.8583 75.1908 44.8606 75.3815C44.891 75.4691 44.9064 75.5276 44.9067 75.5569C44.9073 75.6009 44.8932 75.6524 44.8646 75.7114C44.8957 75.8577 44.9121 75.9969 44.9137 76.1289L44.9142 76.1729C44.9146 76.2022 45.0136 76.5017 45.2112 77.0713L45.2579 77.2908L45.5031 77.5518L45.6389 77.8582L45.7717 77.9226L45.8613 78.0535L45.9715 78.0741L46.17 78.1157L46.2798 78.0924L46.3458 78.0916C46.4924 78.0898 46.6677 78.029 46.8716 77.9091C46.9284 77.7618 47.0806 77.6059 47.3279 77.4415C47.3417 77.368 47.428 77.2276 47.5868 77.0203L47.9575 76.7518L48.0863 76.4862C48.2027 76.4114 48.3269 76.3733 48.4589 76.3717C48.6203 76.3697 48.7968 76.4115 48.9885 76.4972C49.0783 76.6428 49.125 76.8622 49.1285 77.1555ZM53.9805 64.8194C53.9827 64.9954 53.8673 65.1582 53.6344 65.3077L53.635 65.3517C53.3604 65.6924 53.1208 65.886 52.916 65.9325L52.5909 66.3325L52.3744 66.6212L51.87 66.7593L51.6538 67.07L51.304 67.2503L50.7382 67.7632L50.3822 67.4375L50.4415 66.8868L50.6786 66.4878C50.6908 66.2823 50.806 66.1049 51.0241 65.9556L51.0231 65.8676L51.154 65.778L51.172 65.4477L51.5229 65.3555L51.5204 65.1575L51.7839 65.1103C51.839 64.8162 51.961 64.6021 52.1501 64.4677L52.2155 64.4229L52.3459 64.2893L52.5155 63.7592C53.4863 63.9821 53.9746 64.3355 53.9805 64.8194ZM56.3666 76.4512C56.3707 76.7885 56.3146 77.0019 56.1984 77.0913L56.0894 77.1806L55.9832 77.49L55.6326 77.6042C55.5328 77.8401 55.381 78.0253 55.1773 78.1598L54.9801 78.2282L54.6979 78.5397L54.4347 78.6089C54.3353 78.8742 54.1244 79.0161 53.8019 79.0347C53.7731 79.079 53.7082 79.1678 53.6071 79.3011C53.3889 79.4504 53.1627 79.5412 52.9284 79.5734L52.8187 79.5967L52.6671 79.7966L52.2271 79.8019L51.8784 80.0702L50.9684 79.4213L50.54 78.5684L50.5048 77.4908L50.4136 77.2279L50.654 75.2888L50.7409 75.1997C50.6942 74.9803 50.6696 74.7679 50.6671 74.5626C50.6655 74.4306 50.7062 74.1587 50.7892 73.747L50.893 73.2397C50.8626 73.1521 50.8028 73.0575 50.7135 72.9559L50.8404 72.5363L50.8782 72.0298L50.9214 71.9633C50.8611 71.832 50.8227 71.6858 50.8061 71.5247C50.8204 71.4952 50.8346 71.4583 50.8487 71.4141C50.8627 71.3553 50.8695 71.3112 50.8691 71.2819C50.8235 71.1504 50.8 71.026 50.7985 70.9087C50.7943 70.5567 50.9903 70.393 51.3866 70.4175L51.6508 70.4363C51.8258 70.3461 51.9352 70.3008 51.9792 70.3003C52.2725 70.2967 52.4725 70.4556 52.5791 70.777L52.5801 70.865C52.641 71.0402 52.6723 71.2085 52.6743 71.3699C52.6759 71.5019 52.6624 71.5974 52.6338 71.6564L52.4932 72.7582L52.651 73.0643C52.6542 73.3283 52.5691 73.564 52.3956 73.7714L52.4868 74.0343L52.211 74.8738C52.1862 75.2408 52.1529 75.5199 52.1112 75.7111L52.1179 76.261L51.9897 76.5706L52.0144 76.7903L51.9766 77.2968L52.0254 77.6922L52.3586 77.9522L52.622 77.905L52.6652 77.8385L52.8415 77.8583L53.1264 77.7668L53.3654 77.5219L53.4518 77.3888L53.6055 77.3649L53.6482 77.2544L53.7131 77.1656L53.8462 77.252L54.0635 77.0293L54.1957 77.0497L54.2378 76.8952L54.2818 76.8947L54.3457 76.7179L54.5426 76.6275L54.9581 76.4244C55.2926 76.1856 55.6211 76.0643 55.9438 76.0603L56.0318 76.0593C56.1943 76.1599 56.3059 76.2906 56.3666 76.4512ZM65.8238 77.7439L65.5636 78.0551L65.3286 78.63L65.1542 78.7642L65.004 79.074L64.5645 79.1234L64.282 79.4129L63.8421 79.4182L63.5808 79.6414L63.338 79.5784L63.0528 79.6479L63.055 79.8239L62.2402 79.7678L61.8885 79.7941L61.6261 79.9293L61.4045 79.8C61.551 79.7835 61.6683 79.7748 61.7563 79.7737C61.6391 79.7898 61.2875 79.8234 60.7014 79.8746L60.6351 79.8534L60.4589 79.8335L60.1748 79.991C60.0861 79.9334 59.9239 79.8694 59.6884 79.7989C59.3654 79.7735 59.1526 79.7615 59.0499 79.7627L58.8739 79.7649C58.7711 79.7514 58.661 79.7455 58.5437 79.7469C58.4264 79.7483 58.3094 79.7791 58.1928 79.8392L57.8824 79.6449L57.7059 79.6031C57.6619 79.6036 57.5809 79.5826 57.4631 79.5401C56.9197 79.488 56.6429 79.0367 56.6325 78.1861L56.6301 77.9881L57.0443 77.675L57.5698 77.4706L57.9682 77.6638L58.2762 77.66L58.277 77.726C58.4244 77.7829 58.5431 77.8988 58.6333 78.0737L58.8095 78.0935L58.813 78.3795L59.0998 78.442L59.1663 78.4852L61.98 78.2749L62.6606 78.1566L62.7266 78.1557L62.7692 78.0452L63.0767 77.9975L63.1199 77.9309C63.4273 77.8832 63.7122 77.7917 63.9746 77.6565L63.9952 77.5462C63.9804 77.5317 63.9504 77.4808 63.9054 77.3933L63.7956 77.4167L63.507 77.2002L63.309 77.2026L63.1971 77.0499L63.2621 76.9611L63.0206 77.0081L62.8422 76.8122C62.7984 76.8274 62.7251 76.8357 62.6225 76.8369C62.4318 76.8392 62.2407 76.8049 62.0492 76.7339L61.8512 76.7363L61.6964 76.6722L61.3898 76.786L61.2114 76.5901L61.1454 76.5909L60.8345 76.3527L60.1493 76.097L59.9272 75.9237L59.0893 75.7799L58.9995 75.627L58.3787 75.2386L58.0398 74.5166L57.7713 74.1459L57.6694 73.0031L57.7557 72.87C57.781 72.5323 57.8947 72.2376 58.097 71.9858C58.3155 71.8658 58.4235 71.6958 58.4208 71.4758L58.75 71.4058C58.8072 71.2877 58.9232 71.1763 59.0979 71.0715L59.4247 70.8035L60.8041 70.2586L61.0453 70.1897L61.4847 70.1403L62.2082 69.9335L63.5952 70.0045L63.6406 70.114C63.7731 70.1564 63.9212 70.2719 64.0848 70.4606L64.0862 70.5706L64.4408 70.7863L64.2933 71.3161L64.2517 71.5146C64.1682 71.8824 63.9651 72.0682 63.6424 72.0721C63.3785 72.0753 63.179 71.9531 63.0439 71.7054L63.0431 71.6394L62.7789 71.6206L62.472 71.7124L62.1836 71.5179L62.0309 71.6297C61.8403 71.6321 61.665 71.6929 61.5051 71.8122C61.2851 71.8149 61.0736 71.9054 60.8704 72.0839L60.5844 72.0874L60.3883 72.2438L60.0811 72.3136L60.0377 72.3581L59.9065 72.4257L59.7109 72.6261L59.6452 72.6489L59.451 72.9593L59.2106 73.0943C59.1542 73.2856 59.1196 73.4474 59.1065 73.5796C59.1237 73.7847 59.1474 73.9238 59.1776 73.9967C59.2223 74.0549 59.3258 74.1196 59.488 74.191L59.4893 74.3009L59.7772 74.4514C60.0129 74.5366 60.1901 74.6298 60.3086 74.731L60.7486 74.7256L61.0375 74.9641L61.5443 75.0239L61.7439 75.1535L62.6048 75.385L62.7177 75.6257L62.8038 75.4706C62.9945 75.4683 63.2522 75.5531 63.577 75.7252L63.9738 75.7864L64.0197 75.9398L64.3716 75.9355L64.9919 76.28C65.0675 76.4697 65.231 76.6438 65.4823 76.802L65.7261 76.9531L65.6634 77.2179C65.7678 77.3633 65.821 77.5166 65.823 77.6779L65.8238 77.7439ZM75.8133 77.6221L75.5531 77.9333L75.3181 78.5082L75.1437 78.6423L74.9934 78.9522L74.554 79.0015L74.2715 79.291L73.8316 79.2964L73.5703 79.5196L73.3275 79.4565L73.0423 79.526L73.0444 79.702L72.2297 79.6459L71.878 79.6722L71.6156 79.8074L71.394 79.6781C71.5405 79.6617 71.6577 79.6529 71.7457 79.6518C71.6286 79.6679 71.277 79.7016 70.6909 79.7527L70.6246 79.7315L70.4484 79.7117L70.1643 79.8691C70.0756 79.8116 69.9134 79.7475 69.6779 79.6771C69.3549 79.6517 69.1421 79.6396 69.0394 79.6409L68.8634 79.643C68.7606 79.6296 68.6505 79.6236 68.5332 79.625C68.4159 79.6265 68.2989 79.6572 68.1823 79.7173L67.8719 79.5231L67.6954 79.4812C67.6514 79.4818 67.5704 79.4608 67.4526 79.4182C66.9092 79.3661 66.6324 78.9148 66.622 78.0642L66.6196 77.8662L67.0338 77.5532L67.5593 77.3487L67.9577 77.5419L68.2657 77.5381L68.2665 77.6041C68.4139 77.661 68.5326 77.7769 68.6228 77.9518L68.799 77.9717L68.8025 78.2576L69.0893 78.3201L69.1558 78.3633L71.9695 78.153L72.6501 78.0347L72.7161 78.0339L72.7587 77.9234L73.0662 77.8756L73.1094 77.8091C73.4168 77.7613 73.7017 77.6698 73.9641 77.5346L73.9847 77.4244C73.9699 77.4099 73.9399 77.3589 73.8949 77.2714L73.7851 77.2948L73.4965 77.0783L73.2985 77.0807L73.1866 76.9281L73.2515 76.8393L73.0101 76.8862L72.8317 76.6904C72.7879 76.7056 72.7146 76.7138 72.612 76.7151C72.4213 76.7174 72.2302 76.683 72.0387 76.612L71.8407 76.6145L71.6859 76.5503L71.3793 76.6641L71.2009 76.4682L71.1349 76.4691L70.8239 76.2308L70.1388 75.9752L69.9166 75.8019L69.0788 75.6581L68.989 75.5052L68.3682 75.1167L68.0293 74.3948L67.7608 74.024L67.6588 72.8812L67.7452 72.7481C67.7704 72.4105 67.8842 72.1157 68.0865 71.8639C68.305 71.7439 68.413 71.5739 68.4103 71.3539L68.7394 71.2839C68.7967 71.1658 68.9127 71.0544 69.0874 70.9496L69.4141 70.6816L70.7936 70.1367L71.0348 70.0678L71.4742 70.0184L72.1977 69.8116L73.5847 69.8827L73.63 69.9921C73.7626 70.0345 73.9107 70.1501 74.0743 70.3387L74.0757 70.4487L74.4303 70.6644L74.2828 71.1943L74.2412 71.3928C74.1577 71.7605 73.9546 71.9463 73.6319 71.9503C73.368 71.9535 73.1684 71.8312 73.0334 71.5835L73.0326 71.5175L72.7684 71.4988L72.4615 71.5905L72.1731 71.396L72.0204 71.5079C71.8298 71.5102 71.6545 71.571 71.4946 71.6903C71.2746 71.693 71.063 71.7836 70.8599 71.9621L70.5739 71.9656L70.3778 72.122L70.0706 72.1917L70.0272 72.2363L69.896 72.3039L69.7004 72.5043L69.6347 72.5271L69.4404 72.8375L69.2001 72.9724C69.1437 73.1638 69.109 73.3255 69.096 73.4577C69.1132 73.6628 69.1369 73.8019 69.1671 73.8749C69.2118 73.933 69.3153 73.9977 69.4775 74.0691L69.4788 74.1791L69.7667 74.3296C70.0024 74.4147 70.1795 74.5079 70.2981 74.6091L70.7381 74.6038L71.027 74.8422L71.5338 74.9021L71.7334 75.0316L72.5943 75.2632L72.7072 75.5038L72.7933 75.3487C72.984 75.3464 73.2417 75.4313 73.5665 75.6033L73.9633 75.6645L74.0091 75.8179L74.3611 75.8137L74.9814 76.1581C75.057 76.3479 75.2205 76.5219 75.4718 76.6802L75.7156 76.8312L75.6529 77.096C75.7573 77.2414 75.8105 77.3948 75.8125 77.5561L75.8133 77.6221ZM81.1777 64.4877C81.1798 64.6636 81.0645 64.8264 80.8316 64.9759L80.8322 65.0199C80.5576 65.3606 80.318 65.5542 80.1132 65.6007L79.7881 66.0007L79.5716 66.2894L79.0672 66.4275L78.851 66.7382L78.5012 66.9185L77.9354 67.4314L77.5794 67.1057L77.6387 66.555L77.8758 66.1561C77.888 65.9506 78.0031 65.7731 78.2213 65.6238L78.2203 65.5358L78.3512 65.4462L78.3692 65.116L78.7201 65.0237L78.7176 64.8257L78.9811 64.7785C79.0362 64.4844 79.1582 64.2703 79.3473 64.136L79.4127 64.0912L79.5431 63.9576L79.7127 63.4274C80.6834 63.6503 81.1718 64.0037 81.1777 64.4877ZM83.5638 76.1194C83.5679 76.4567 83.5118 76.6701 83.3956 76.7595L83.2866 76.8489L83.1804 77.1582L82.8298 77.2725C82.73 77.5084 82.5782 77.6936 82.3745 77.8281L82.1773 77.8965L81.8951 78.2079L81.6319 78.2771C81.5325 78.5424 81.3216 78.6843 80.9991 78.7029C80.9703 78.7472 80.9054 78.836 80.8043 78.9693C80.5861 79.1186 80.3599 79.2094 80.1256 79.2416L80.0159 79.2649L79.8643 79.4648L79.4243 79.4702L79.0756 79.7384L78.1656 79.0895L77.7372 78.2366L77.702 77.159L77.6108 76.8961L77.8512 74.957L77.9381 74.8679C77.8914 74.6485 77.8668 74.4361 77.8643 74.2308C77.8627 74.0988 77.9034 73.827 77.9864 73.4153L78.0902 72.9079C78.0598 72.8203 78 72.7257 77.9107 72.6241L78.0376 72.2045L78.0754 71.698L78.1186 71.6315C78.0583 71.5002 78.0199 71.354 78.0033 71.1929C78.0176 71.1634 78.0318 71.1265 78.0459 71.0824C78.0599 71.0235 78.0667 70.9794 78.0663 70.9501C78.0207 70.8186 77.9972 70.6942 77.9957 70.5769C77.9914 70.225 78.1875 70.0612 78.5838 70.0857L78.848 70.1045C79.023 70.0144 79.1324 69.969 79.1764 69.9685C79.4697 69.9649 79.6697 70.1238 79.7763 70.4452L79.7773 70.5332C79.8381 70.7085 79.8695 70.8768 79.8715 71.0381C79.8731 71.1701 79.8596 71.2656 79.831 71.3246L79.6904 72.4264L79.8482 72.7325C79.8514 72.9965 79.7663 73.2322 79.5928 73.4397L79.684 73.7026L79.4082 74.542C79.3834 74.909 79.3501 75.1881 79.3084 75.3793L79.3151 75.9292L79.1869 76.2388L79.2116 76.4585L79.1738 76.965L79.2226 77.3605L79.5558 77.6204L79.8192 77.5732L79.8624 77.5067L80.0387 77.5265L80.3236 77.435L80.5626 77.1901L80.649 77.057L80.8027 77.0332L80.8454 76.9226L80.9103 76.8338L81.0433 76.9202L81.2606 76.6976L81.3929 76.7179L81.435 76.5634L81.479 76.5629L81.5429 76.3861L81.7398 76.2957L82.1553 76.0926C82.4898 75.8538 82.8183 75.7325 83.141 75.7285L83.229 75.7275C83.3915 75.8282 83.5031 75.9588 83.5638 76.1194ZM92.4962 74.0743L92.3691 74.4719C92.3737 74.8532 92.3554 75.1541 92.3141 75.3746L92.1848 75.5962L92.1877 75.8382L92.0796 75.9935L92.0174 76.3023L91.7783 76.5472L91.6311 77.0991L91.4559 77.1672L91.3708 77.4103L91.1087 77.5675L90.9373 77.9436L90.6749 78.0788L90.6562 78.3431L90.2401 78.5022C90.0526 78.7685 89.8201 78.94 89.5423 79.0167L89.4546 79.0398C89.253 79.3503 88.9836 79.5076 88.6463 79.5117C88.5007 79.6015 88.3326 79.6475 88.1419 79.6498L87.9238 79.8065L87.7046 79.8752L87.4213 80.0987L87.1351 80.0801L86.8282 80.1719L86.4523 80.0225L85.5056 79.968L85.1695 79.4661L84.6793 78.966L84.785 78.6127L84.4459 77.8688L84.5964 77.5809L84.48 77.0543L84.586 76.723C84.5541 76.518 84.5377 76.3716 84.5366 76.2836C84.5332 76.0049 84.604 75.7987 84.7491 75.6649C84.7619 75.5181 84.8543 75.2749 85.0262 74.9355L85.1362 74.9341L85.0903 74.7807L85.1525 74.4719L85.1485 74.1419C85.2642 74.0085 85.3291 73.9197 85.3433 73.8755L85.2735 73.5684L85.2724 73.4804C85.3726 73.2738 85.4213 73.0605 85.4187 72.8405L85.8728 72.197C85.8728 72.197 85.8873 72.1821 85.9163 72.1524C85.9599 72.1226 85.9962 72.0928 86.0252 72.0631L86.0021 71.9754L86.0901 71.9743L86.4156 71.5963L86.4314 71.0901L86.9789 70.8854C87.1826 70.7509 87.3119 70.5293 87.3668 70.2206L87.6528 70.2171C87.8131 70.1271 87.9592 70.0814 88.0912 70.0797C88.2232 70.0781 88.3482 70.1059 88.4662 70.1632L88.7085 70.1822L89.2777 69.9553L89.5892 70.2375L89.8331 70.3885L90.0091 70.3864L90.3412 70.5583L90.5172 70.5562C90.71 70.7298 90.9329 70.9691 91.186 71.2741L91.2313 71.3835L91.3864 71.4696L91.8556 72.058L92.2862 73.0868L92.2889 73.3068L92.4962 74.0743ZM91.0508 74.62L91.0274 74.5103C90.9235 74.4088 90.8635 74.2996 90.8474 74.1824L90.9121 74.0716L90.709 73.6561L90.7479 73.2376L90.6586 73.1286C90.4661 72.9843 90.362 72.8682 90.3463 72.7804C90.2136 72.7234 90.1458 72.5775 90.1429 72.3429L90.0107 72.3225L89.7413 71.8857L89.5415 71.7342L89.0774 71.5638L88.9008 71.522C88.8128 71.523 88.7538 71.4944 88.7238 71.4361L88.2897 71.9255L88.0112 72.5449L87.5522 72.7925L87.4892 73.0353L87.2705 73.148L87.1895 73.721L86.9272 73.8562C86.871 74.0623 86.844 74.2533 86.8461 74.4293L86.4982 74.7635L86.609 74.8282C86.6111 75.0042 86.547 75.159 86.4166 75.2926C86.3743 75.4251 86.3174 75.5725 86.246 75.7347L86.2482 75.9107L86.1832 75.9995L86.2085 76.2632L85.9737 76.8601L86.0191 76.9695L86.0266 77.5855L85.9423 77.8945L85.9681 78.2022L86.1696 78.4858L86.4789 78.592L86.5894 78.6347L86.7643 78.5446L87.3368 78.5816L87.4221 78.3605L87.5101 78.3594C87.5981 78.3584 87.6497 78.3797 87.6649 78.4236L87.8621 78.3552L88.0389 78.419L88.3225 78.2175L88.3657 78.151L88.5631 78.1046C88.6638 77.942 88.9038 77.7777 89.2831 77.6118L89.3258 77.5012L89.762 77.1879L89.9997 76.833L90.3495 76.6527L90.3702 76.5424L90.4772 76.2991L90.4737 76.0131L90.735 75.7899L90.8211 75.6349L90.9295 75.5015C90.8687 75.3262 90.8379 75.2019 90.837 75.1286C90.8354 74.9966 90.8777 74.8568 90.9639 74.709L91.0508 74.62ZM108.195 75.4669C108.196 75.5842 108.103 75.7394 107.915 75.9324L107.677 76.3093L107.595 76.7503L107.397 76.8187L107.355 76.9513C107.121 77.0275 106.955 77.2128 106.856 77.5074C106.697 77.7147 106.523 77.8635 106.333 77.9538C106.261 78.028 106.195 78.0802 106.137 78.1102L106.03 78.3095L105.832 78.3559L105.264 78.6709L104.517 78.768L104.319 78.7264L103.989 78.7965L103.855 78.6441C103.649 78.5439 103.501 78.4431 103.412 78.3415C103.235 78.2996 103.102 78.1619 103.011 77.9283C102.758 77.6381 102.63 77.4049 102.628 77.2289L102.627 77.163L102.47 76.9008L102.426 76.8574L102.289 76.463L102.086 76.0475L102.124 75.541L101.9 75.2577L101.547 73.3698C101.5 73.1211 101.475 72.9087 101.473 72.7327L101.428 72.6232L101.316 72.4706L101.121 72.737L100.339 73.5826L100.059 74.048L99.9089 74.3579L99.6712 74.7128L99.4974 74.891L99.5207 75.0007L99.2211 75.6864L99.0478 75.9085L98.8283 75.9552L98.6327 76.1556C98.6363 76.4489 98.4993 76.6413 98.2218 76.7327L98.1783 76.7772C98.0502 77.1014 97.906 77.3012 97.7456 77.3765L97.5513 77.6869C97.2323 77.9842 97.0219 78.1701 96.9201 78.2447C96.8779 78.3918 96.7988 78.5175 96.6827 78.6216C96.6539 78.6659 96.6033 78.7252 96.5308 78.7994C96.4899 79.0493 96.2867 79.2278 95.9213 79.3349L95.6802 79.4039C95.3867 79.3928 95.1426 79.2271 94.948 78.9068L94.6113 78.3608L94.7149 77.8315L94.6674 77.5461L94.7109 77.5015L94.7294 77.2153L94.481 76.6903L94.6537 76.4242L94.5622 76.1393L94.7125 75.8294L94.7503 75.3229L94.6612 75.236L94.8335 74.9259L94.7656 74.7727L94.7393 74.421L94.8192 73.7599C94.7881 73.6136 94.7723 73.5185 94.7718 73.4745C94.7714 73.4452 94.7784 73.4157 94.7927 73.3862C94.7921 73.3422 94.7918 73.3129 94.7916 73.2982L94.6795 73.1236L94.7369 72.4188L94.7119 72.1771L94.7736 71.8244L94.6784 71.2315L95.0663 70.5667C95.5218 70.6345 95.8384 70.7333 96.016 70.8631C96.1934 70.9783 96.2841 71.1972 96.288 71.5199L96.2904 71.7178L96.4476 71.9799L96.3873 72.4427L96.486 73.3216L96.3371 73.7414L96.4088 74.2026L96.4133 74.5766L96.2403 74.8207L96.3771 75.215L96.2481 75.4586L96.229 75.7009L96.364 75.9413L96.1936 76.4054L96.13 76.6042L96.1324 76.8022L96.2451 77.0208L96.6145 76.6423C96.6119 76.4223 96.6834 76.2747 96.8292 76.1996C96.842 76.0528 96.8993 75.9421 97.0011 75.8675L96.9343 75.8023L97.2171 75.5348L97.282 75.446L97.2796 75.248L97.6283 74.9798L97.7136 74.7587L97.91 74.6243L98.7561 73.6459C98.6839 73.7348 98.4452 74.0091 98.0401 74.4687L98.0407 74.5127L98.0828 74.3582L98.3647 74.0247L98.5582 73.6483L98.5555 73.4283L98.8841 73.3143L98.9246 73.0278L99.0115 72.9387L99.0322 72.8285L99.0303 72.6745L99.3345 72.3628C99.3342 72.3334 99.3337 72.2968 99.3332 72.2528C99.318 72.209 99.3103 72.1797 99.3101 72.165C99.3069 71.9011 99.4518 71.7526 99.7447 71.7197C99.8735 71.4541 100.07 71.2977 100.333 71.2505L100.463 71.0509L100.506 71.0064C100.636 70.8141 100.832 70.6797 101.095 70.6032L101.29 70.3588L101.818 70.3523L102.086 70.6571L102.33 70.7861L102.352 70.8518L102.507 70.894L102.556 71.3554L102.933 71.5708L102.785 72.0566L103.033 72.5817L103.041 73.1976L103.227 74.0314L103.281 74.8228L103.484 75.2824L103.623 75.8527C103.712 75.9396 103.78 76.0635 103.826 76.2243L104.223 76.3294L104.229 76.7694L104.452 77.0087L104.452 77.0747L104.541 77.0956L104.63 77.2265L104.717 77.1155C104.688 77.1158 104.724 77.1227 104.827 77.1361C104.988 77.1341 105.155 76.9854 105.328 76.69L105.591 76.6208L105.656 76.51C105.698 76.3921 105.785 76.303 105.916 76.2428L106.071 76.2629L106.158 76.1738L106.178 76.0636L106.243 75.9748C106.389 75.8703 106.482 75.7152 106.523 75.5093L106.762 75.2424L106.804 75.0438L106.953 74.69L107.37 74.5309L107.966 74.7216L108.172 75.3572C108.172 75.3719 108.179 75.3864 108.194 75.4009C108.195 75.4302 108.195 75.4522 108.195 75.4669ZM44.9929 94.1113C44.9963 94.3899 44.7854 94.5391 44.3603 94.559L43.9665 94.7398L43.5695 94.6567L43.0013 94.9716C42.6766 94.8142 42.441 94.7364 42.2944 94.7382C42.2797 94.7384 42.2139 94.7539 42.0969 94.7846C41.9944 94.8005 41.8992 94.809 41.8112 94.8101C41.6939 94.8115 41.6058 94.8053 41.5469 94.7913L41.0649 94.9512L40.9546 94.9306L40.9109 94.9531L39.7012 94.9899L39.5719 95.2115L39.0198 95.0422L38.8012 95.1549L38.2738 95.2053L37.943 95.1433C37.8112 95.1596 37.6794 95.1832 37.5478 95.2142C37.4307 95.2302 37.3648 95.2384 37.3501 95.2386L37.0646 95.2861L36.9337 95.3757L37.0706 95.77L37.2522 96.2298L37.1685 96.5829L37.3906 96.7562L37.2178 97.0223C37.2486 97.1393 37.2644 97.2344 37.2653 97.3078C37.2669 97.4397 37.2322 97.6015 37.1612 97.7931L37.1041 98.5198L37.4563 98.5375L38.1581 98.3529L38.4683 98.5252C38.5123 98.5246 38.5709 98.5239 38.6442 98.523C38.7031 98.537 38.7398 98.5439 38.7545 98.5437L38.8205 98.5429L38.9509 98.4093L39.6315 98.291L40.1176 98.461C40.3515 98.3995 40.5197 98.3608 40.6222 98.3449L41.3482 98.336L41.7651 98.2429L42.0087 98.372L42.3381 98.324C42.4552 98.3079 42.5431 98.2994 42.6018 98.2987L43.8758 98.1292L44.0306 98.1933C44.0744 98.1781 44.1257 98.1701 44.1843 98.1694C44.287 98.1682 44.412 98.196 44.5594 98.2528C44.7533 98.5145 44.8515 98.748 44.854 98.9533C44.8549 99.0266 44.8482 99.0854 44.8341 99.1296L44.4169 99.2007L44.0454 99.4032L43.7154 99.4072L43.5413 99.5634L42.9248 99.5269L42.3767 99.6876L41.7401 99.8054L41.6079 99.785L41.5644 99.8295L40.7274 99.7517L40.4428 99.8652L40.0462 99.826C39.8275 99.9314 39.5568 99.986 39.2342 99.9899L39.0362 99.9924C38.9631 100.008 38.8096 100.054 38.5758 100.13C38.2657 99.9577 38.1107 99.8716 38.1107 99.8716C38.1107 99.8716 38.0671 99.9088 37.98 99.9832C37.8929 100.058 37.7909 100.11 37.6739 100.141L37.2554 100.102L36.9914 100.105C36.9639 100.252 36.9253 100.693 36.8755 101.427C36.9363 101.602 36.9676 101.756 36.9692 101.888L36.7559 102.44L36.8911 102.703L36.7194 103.057L36.7894 103.386L36.6819 103.585C36.5034 104.585 36.3792 105.224 36.3092 105.504C36.1973 105.945 36.0684 106.204 35.9227 106.279L35.4357 106.043L34.8418 106.05L34.9875 105.366L34.9837 105.058L35.1141 104.925L35.1546 104.638L35.1752 104.528L35.131 104.506L35.1278 104.242L34.9271 104.025L34.9695 103.892C34.9657 103.584 35.0211 103.312 35.1355 103.076L35.0465 102.989L35.0872 102.725L35.0175 102.418L35.1452 102.064L35.0915 101.273L35.2361 100.501L35.1229 100.238L35.1216 100.128L34.7712 100.264L34.262 100.007L34.0426 100.053C33.8963 100.084 33.8085 100.1 33.7791 100.1C33.3685 100.105 33.1602 99.866 33.1543 99.3821C33.1468 98.7661 33.451 98.4544 34.067 98.4469C34.375 98.4431 34.595 98.4477 34.7272 98.4608L35.344 98.5193L35.2978 98.3438L35.3112 97.6396L35.1787 97.5972L35.2503 96.2543L35.0231 95.663L34.9987 95.4653L34.8436 95.3792L34.1445 95.7837L33.7866 95.304C33.5212 95.1899 33.3864 94.9642 33.3823 94.6269C33.4687 94.4939 33.5115 94.3907 33.5106 94.3173L33.5044 93.8114L34.1209 93.8479C34.4262 93.6241 34.7035 93.5107 34.9528 93.5077C34.9381 93.5079 35.1511 93.5346 35.5918 93.5879C35.8554 93.5553 36.339 93.5128 37.0424 93.4602L37.8357 93.5605L38.4293 93.5313L38.5165 93.4642C38.6185 93.4043 38.7281 93.3736 38.8454 93.3722C38.9481 93.3709 39.0289 93.3846 39.088 93.4132L39.1762 93.4342C39.308 93.4179 39.5057 93.3935 39.7694 93.3609C40.0328 93.3137 40.2304 93.282 40.3622 93.2657L40.385 93.3314L40.5184 93.4398L40.6064 93.4387C40.6797 93.4378 40.7823 93.4292 40.9141 93.413C41.0457 93.382 41.1409 93.3662 41.1995 93.3655L41.2655 93.3647L41.8606 93.4454L42.4993 93.5036C42.7188 93.4569 42.9238 93.4324 43.1145 93.4301C43.2611 93.4283 43.4007 93.4486 43.5332 93.491L43.9072 93.4864C44.0387 93.4408 44.185 93.4171 44.3464 93.4151C44.7717 93.4099 44.9872 93.642 44.9929 94.1113ZM53.6273 99.5503L53.5002 99.9479C53.5048 100.329 53.4865 100.63 53.4452 100.851L53.3159 101.072L53.3188 101.314L53.2107 101.47L53.1485 101.778L52.9095 102.023L52.7622 102.575L52.587 102.643L52.502 102.886L52.2399 103.044L52.0684 103.42L51.8061 103.555L51.7873 103.819L51.3712 103.978C51.1838 104.244 50.9512 104.416 50.6734 104.493L50.5857 104.516C50.3841 104.826 50.1147 104.984 49.7774 104.988C49.6318 105.077 49.4637 105.124 49.273 105.126L49.0549 105.283L48.8358 105.351L48.5525 105.575L48.2662 105.556L47.9593 105.648L47.5835 105.498L46.6367 105.444L46.3006 104.942L45.8104 104.442L45.9161 104.089L45.577 103.345L45.7275 103.057L45.6111 102.53L45.7171 102.199C45.6852 101.994 45.6688 101.848 45.6677 101.76C45.6643 101.481 45.7351 101.275 45.8802 101.141C45.8931 100.994 45.9854 100.751 46.1573 100.412L46.2673 100.41L46.2214 100.257L46.2837 99.9479L46.2796 99.618C46.3953 99.4845 46.4603 99.3957 46.4744 99.3516L46.4046 99.0444L46.4036 98.9564C46.5037 98.7498 46.5525 98.5366 46.5498 98.3166L47.004 97.673C47.004 97.673 47.0184 97.6581 47.0474 97.6285C47.0911 97.5986 47.1274 97.5688 47.1563 97.5391L47.1333 97.4514L47.2213 97.4503L47.5467 97.0723L47.5625 96.5661L48.11 96.3614C48.3137 96.2269 48.4431 96.0053 48.498 95.6966L48.7839 95.6931C48.9442 95.6032 49.0903 95.5574 49.2223 95.5558C49.3543 95.5542 49.4793 95.582 49.5973 95.6392L49.8396 95.6582L50.4089 95.4313L50.7203 95.7135L50.9642 95.8645L51.1402 95.8624L51.4723 96.0344L51.6483 96.0322C51.8411 96.2059 52.064 96.4452 52.3171 96.7501L52.3624 96.8596L52.5175 96.9457L52.9867 97.534L53.4173 98.5628L53.42 98.7828L53.6273 99.5503ZM52.1819 100.096L52.1586 99.9863C52.0546 99.8849 51.9946 99.7756 51.9785 99.6585L52.0432 99.5477L51.8401 99.1321L51.879 98.7136L51.7897 98.6047C51.5972 98.4603 51.4931 98.3443 51.4774 98.2565C51.3447 98.1994 51.2769 98.0536 51.2741 97.8189L51.1418 97.7985L50.8724 97.3618L50.6726 97.2102L50.2085 97.0398L50.0319 96.998C49.944 96.9991 49.8849 96.9705 49.8549 96.9122L49.4208 97.4015L49.1424 98.0209L48.6833 98.2685L48.6203 98.5113L48.4017 98.624L48.3206 99.197L48.0583 99.3322C48.0021 99.5383 47.9751 99.7293 47.9773 99.9053L47.6293 100.24L47.7401 100.304C47.7423 100.48 47.6781 100.635 47.5478 100.769C47.5054 100.901 47.4485 101.048 47.3771 101.211L47.3793 101.387L47.3144 101.475L47.3396 101.739L47.1048 102.336L47.1502 102.446L47.1577 103.062L47.0735 103.371L47.0992 103.678L47.3007 103.962L47.61 104.068L47.7205 104.111L47.8955 104.021L48.4679 104.058L48.5533 103.837L48.6412 103.835C48.7292 103.834 48.7808 103.856 48.796 103.9L48.9932 103.831L49.17 103.895L49.4536 103.694L49.4968 103.627L49.6942 103.581C49.7949 103.418 50.0349 103.254 50.4143 103.088L50.4569 102.977L50.8931 102.664L51.1308 102.309L51.4806 102.129L51.5013 102.018L51.6083 101.775L51.6048 101.489L51.8661 101.266L51.9523 101.111L52.0606 100.978C51.9998 100.802 51.969 100.678 51.9681 100.605C51.9665 100.473 52.0088 100.333 52.095 100.185L52.1819 100.096ZM63.5942 96.3925L63.4271 97.1206L62.6145 97.2405L62.178 97.5319L61.8904 97.4034L61.5846 97.5831L61.2562 97.7191L61.0381 97.8758L61.0392 97.9638L60.5799 98.1894L60.2768 98.5891L60.1228 98.591C59.8912 98.8432 59.7244 98.9993 59.6225 99.0592L59.3207 99.5689L59.2112 99.6142C59.1686 99.7321 59.1195 99.9087 59.0637 100.144L58.757 100.258L58.6283 100.523L58.455 100.746L58.415 101.076L58.2398 101.144L58.2438 101.474L58.1786 101.541C58.2235 101.614 58.2758 101.694 58.3356 101.781L58.0072 101.917L57.9667 102.204L57.7513 102.58L57.8868 102.865L57.6056 103.264C57.6367 103.41 57.6527 103.513 57.6534 103.572C57.6535 103.586 57.6539 103.616 57.6544 103.66C57.6403 103.704 57.6334 103.74 57.6338 103.77L57.6802 103.967L58.059 104.359L57.7792 104.868L57.5176 105.069L56.9054 105.385L56.0875 105.065L56.0813 104.559L55.9909 104.362L56.0529 104.031C56.0207 103.797 56.0039 103.621 56.0024 103.504C56.0019 103.46 56.0085 103.401 56.0223 103.327C56.0214 103.254 56.0208 103.203 56.0204 103.173L55.9957 102.954C55.8918 102.852 55.839 102.736 55.8374 102.604C55.836 102.486 55.8857 102.354 55.9866 102.206C55.9857 102.132 55.9683 101.913 55.9345 101.546L55.9997 101.48L55.9302 101.194L55.971 100.93L55.9251 100.776L55.985 100.27L55.8503 100.051L55.9353 99.8082L55.8439 99.5233C55.8574 99.4351 55.8633 99.3177 55.8616 99.1711C55.8589 98.9511 55.8278 98.8048 55.7682 98.7322L55.8546 98.5991L55.7618 98.2042L55.5603 97.9206L55.666 97.5673L55.5764 97.4364L55.4819 96.9095L55.4798 96.7335C55.4054 96.6464 55.3674 96.5369 55.3658 96.4049C55.3622 96.1116 55.6818 95.8583 56.3246 95.6451L56.8759 95.7484L56.991 96.165L57.2144 96.4483L57.1557 97.0431C57.2033 97.3359 57.2585 97.6579 57.3215 98.0092L57.3918 98.3603C57.4068 98.3895 57.4225 98.47 57.4387 98.6018C57.4398 98.6898 57.4043 98.7855 57.3322 98.8891L57.4036 99.3283L57.3655 99.8128L57.2802 100.034L57.3473 100.121L57.3939 100.34C57.4807 100.237 57.5307 100.126 57.5439 100.009L57.6279 99.6775C57.6708 99.589 57.736 99.5222 57.8234 99.4771L57.9074 99.1461L58.2132 98.9663L58.254 98.7018L58.4928 98.4349L58.6647 98.1028C58.8529 97.8951 59.0346 97.7609 59.2099 97.7001L59.2531 97.6336L59.4473 97.3232L59.6667 97.2765L59.7319 97.2097L59.8183 97.0766L60.0587 96.9417L60.1888 96.7861L60.321 96.8065L60.496 96.7163L60.5823 96.5833L60.8447 96.4481L61.2157 96.2015L61.7415 96.0191C61.9465 95.9873 62.0563 95.9712 62.071 95.9711C62.0712 95.9857 62.0713 95.9931 62.0713 95.9931C62.0566 95.9932 62.0493 96.0007 62.0495 96.0153L62.0715 96.0151C62.1302 96.0143 62.2178 95.9839 62.3344 95.9239C62.407 95.8643 62.5093 95.8337 62.6413 95.8321C62.7 95.8314 62.8028 95.8448 62.9498 95.8723C63.3313 95.8824 63.5461 96.0557 63.5942 96.3925ZM82.4848 101.75C82.4139 101.957 82.3205 102.112 82.2044 102.216C82.1624 102.378 82.0978 102.496 82.0107 102.57C81.9392 102.718 81.8524 102.822 81.7505 102.882L81.6641 103.015C81.6065 103.103 81.5264 103.148 81.4237 103.15L81.3164 103.371L81.1624 103.373L81.0549 103.572L80.8797 103.64L80.7496 103.796L80.6407 103.885C80.4207 103.888 80.2382 103.956 80.0931 104.09C79.9034 104.165 79.7058 104.205 79.5005 104.207C79.2952 104.21 79.0892 104.161 78.8827 104.061C78.6478 104.049 78.5301 104.014 78.5293 103.955L78.2208 103.915L78.154 103.849L78.0188 103.587L77.7744 103.392C77.6108 103.203 77.5206 103.028 77.504 102.867C77.3996 102.722 77.2935 102.445 77.1858 102.035L76.9616 101.686L76.9591 101.488L76.7971 100.83L76.8159 100.566L76.6756 99.8852L76.7349 99.3344L76.623 99.1818L76.4097 99.7344C76.1348 100.046 75.9685 100.239 75.9107 100.313C75.8674 100.372 75.8091 100.402 75.7358 100.403C75.7211 100.403 75.6917 100.396 75.6476 100.382L75.5185 100.625C75.504 100.64 75.4971 100.67 75.4976 100.714C75.4987 100.802 75.5506 100.852 75.6535 100.866C75.6245 100.895 75.5524 100.999 75.4372 101.176C75.38 101.294 75.3297 101.376 75.2862 101.42L75.2189 101.311L75.1786 101.62C74.9898 101.769 74.8604 101.99 74.7907 102.284C74.6464 102.477 74.4224 102.751 74.1187 103.107L73.8365 103.418C73.7631 103.419 73.7266 103.434 73.727 103.463L73.7275 103.507C73.642 103.714 73.49 103.877 73.2715 103.997L73.0115 104.33L72.8575 104.332L72.332 104.537C71.8917 104.513 71.618 104.325 71.5111 103.975L71.4861 103.733L71.3506 103.448L71.3477 103.206L71.1639 102.571L71.1615 102.373L71.0268 102.154L71.1065 101.471C71.0909 101.398 71.0824 101.296 71.0807 101.164C71.0793 101.046 71.0857 100.965 71.0998 100.921L71.0762 100.79L71.0751 100.702L70.9622 100.461L71.1331 100.041C71.1023 99.9239 71.056 99.7337 70.9941 99.4705L71.0577 99.2717L71.1159 98.6329L70.9343 98.1731L70.9737 97.7986L70.9053 97.6014C70.8901 97.5576 70.8371 97.4189 70.7462 97.1853L70.5933 97.2752L70.3116 97.6307L70.0506 97.8759L69.5307 98.5423L69.4896 98.7848L69.1205 99.1853L68.9702 99.4952L68.8184 99.673C68.7783 99.9962 68.6198 100.225 68.3428 100.361L68.3245 100.669C68.2376 100.758 68.1437 100.877 68.0428 101.025C67.9566 101.172 67.8917 101.261 67.8481 101.291C67.8189 101.306 67.7608 101.351 67.6737 101.425L67.4143 101.802C67.4173 102.052 67.3241 102.229 67.1347 102.334L67.1363 102.466C67.0498 102.584 66.9339 102.703 66.7887 102.822L66.7661 102.778L66.7039 103.087C66.5866 103.089 66.4783 103.229 66.379 103.509L66.3141 103.598C66.3023 103.833 66.1798 104.01 65.9466 104.13L65.6421 104.42C65.4088 104.54 65.2556 104.601 65.1822 104.602C64.8009 104.606 64.5478 104.294 64.4228 103.665L64.3289 103.182C64.3138 103.153 64.306 103.109 64.3053 103.05C64.304 102.948 64.3248 102.845 64.3675 102.742L64.2524 102.325L64.2921 101.972L64.2438 101.621C64.2694 101.313 64.3184 101.121 64.3908 101.047C64.3431 100.74 64.3189 100.564 64.3184 100.52L64.3136 100.124C64.371 100.021 64.4427 99.8878 64.5287 99.7254L64.3951 99.595C64.3644 99.478 64.3489 99.4122 64.3487 99.3975C64.3475 99.2949 64.4333 99.1178 64.6062 98.8664L64.4472 98.4503L64.5319 98.1852L64.3922 97.5489L64.4324 97.2404L64.3165 96.7577L64.3345 96.4275L64.1317 96.0339C64.418 95.4584 64.7298 95.1686 65.0671 95.1645C65.2431 95.1623 65.4127 95.2336 65.5758 95.3783L65.6224 95.5977C65.8734 95.7267 66.0004 95.9231 66.0037 96.1871C66.0031 96.1431 65.983 96.2974 65.9433 96.6499L65.855 96.629L66.0576 97.0005L65.9277 97.1781L65.9068 97.2664L66.0512 98.2767L66.0176 99.1352L65.9535 99.29L66.0458 99.6409C66.0905 99.699 66.1134 99.772 66.1145 99.86C66.1159 99.9774 66.0587 100.095 65.9428 100.214C65.9453 100.419 65.9107 100.589 65.839 100.721L65.913 101.381L65.9162 101.645L65.9377 101.6L66.0673 101.401L66.3685 100.847L66.4345 100.846C66.5225 100.845 66.6161 100.705 66.7154 100.425L66.8643 100.005C66.8926 99.9165 67.0008 99.7759 67.1892 99.5829L67.2723 99.1859L67.5315 98.7867L67.6157 98.4776C67.6885 98.4327 67.7612 98.3805 67.8338 98.3209L67.855 98.2547C67.8983 98.1955 68.0577 98.0395 68.3334 97.7868L68.4645 97.7192L68.5058 97.4987L68.615 97.4313C68.6846 97.1225 68.8654 96.9149 69.1575 96.8087L69.0687 96.7438L69.1561 96.6987C69.1413 96.6842 69.1337 96.6623 69.1333 96.633C69.133 96.6036 69.1471 96.5595 69.1757 96.5004L69.5258 96.3422L69.5875 95.9894L69.8295 95.9864C69.8293 95.9718 69.8434 95.9203 69.8716 95.8319L70.3073 95.4746C70.5119 95.4134 70.6509 95.3824 70.7242 95.3815C70.9002 95.3793 71.1428 95.4277 71.452 95.5266L71.6758 95.8319L71.7643 95.8748L71.8775 96.1375L72.1906 96.5517L72.1941 96.8376L72.3947 97.0552L72.3988 97.3852C72.5644 97.7352 72.6487 98.0349 72.6517 98.2842L72.589 98.549L72.7255 98.9213L72.4865 99.1663L72.5804 99.6491L72.56 99.7814L72.5393 99.8917C72.5118 100.039 72.4985 100.149 72.4994 100.222C72.5003 100.296 72.5387 100.442 72.6147 100.661L72.5517 100.904L72.6214 101.211L72.5562 101.278C72.5881 101.483 72.6363 101.827 72.7009 102.31L72.6799 102.398L73.3745 101.62L73.5894 101.199C73.647 101.11 73.7406 100.97 73.8702 100.777L73.8697 100.733C73.9255 100.498 74.0189 100.336 74.1498 100.246C74.1487 100.158 74.2207 100.047 74.3657 99.9134L74.5404 99.8012C74.596 99.5512 74.7475 99.344 74.9948 99.1797L75.1011 98.8703L75.2958 98.6039L75.5131 98.3813C75.6439 98.277 75.7446 98.1144 75.8152 97.8936L75.988 97.6274L76.0719 97.2964L76.3123 97.1614L76.5505 96.8505L76.7861 96.3196C76.7274 96.3203 76.6979 96.306 76.6976 96.2767C76.6976 96.2767 76.7119 96.2472 76.7405 96.1881L76.8929 96.0543L77.0645 95.7002C77.3128 95.6091 77.4516 95.5634 77.4809 95.5631C77.4809 95.5631 77.5104 95.5774 77.5694 95.606L77.9657 95.6232L78.3195 95.7728L78.6318 96.1211L78.7016 96.4282L78.6825 96.6705L78.5736 96.7598L78.3372 97.2247L78.2554 97.7318C78.3296 97.8042 78.3679 97.9358 78.3702 98.1264C78.3125 98.2004 78.2843 98.2961 78.2857 98.4135L78.1999 98.5905C78.2301 98.6635 78.2462 98.7806 78.2482 98.942C78.2498 99.0739 78.2436 99.1694 78.2297 99.2282L78.143 99.3393L78.2329 99.4922L78.0813 99.692C78.1693 99.691 78.2145 99.7858 78.2168 99.9764C78.2472 100.064 78.2626 100.123 78.2629 100.152C78.2635 100.196 78.2494 100.247 78.2208 100.306C78.2519 100.453 78.2683 100.592 78.2699 100.724L78.2705 100.768C78.2708 100.797 78.3698 101.097 78.5674 101.666L78.6141 101.886L78.8593 102.147L78.9951 102.453L79.1279 102.517L79.2175 102.648L79.3277 102.669L79.5262 102.711L79.636 102.687L79.702 102.686C79.8486 102.685 80.0239 102.624 80.2278 102.504C80.2847 102.357 80.4368 102.201 80.6841 102.036C80.6979 101.963 80.7842 101.823 80.943 101.615L81.3137 101.347L81.4425 101.081C81.5589 101.006 81.6832 100.968 81.8151 100.967C81.9765 100.965 82.153 101.006 82.3447 101.092C82.4345 101.238 82.4812 101.457 82.4848 101.75Z" fill="#9C5E91"/>
<path d="M68.6841 53.349C104.099 18.2015 162.258 80.3208 195.607 33.8868" stroke="#9C5E91" stroke-width="1.78125" stroke-linecap="round" stroke-dasharray="3.56 3.56"/>
<g clip-path="url(#clip0_836_1633)">
<path d="M203.099 35.8717L190.363 26.1357C190.235 26.0367 190.135 25.9045 190.076 25.7534C190.017 25.6022 190 25.4378 190.028 25.2778C190.055 25.1178 190.126 24.9683 190.232 24.8454C190.338 24.7226 190.475 24.6309 190.63 24.5804L204.029 20.25C204.585 20.0704 205.22 20.5561 205.193 21.1398L204.53 35.2062C204.522 35.3686 204.471 35.5259 204.38 35.661C204.289 35.7961 204.164 35.9038 204.016 35.9724C203.869 36.041 203.705 36.0679 203.544 36.0501C203.382 36.0324 203.228 35.9707 203.099 35.8717Z" fill="#9C5E91"/>
</g>
<defs>
<clipPath id="clip0_836_1633">
<rect width="21.375" height="21.375" fill="white" transform="matrix(-0.692155 -0.721749 -0.721749 0.692155 218.445 23.4258)"/>
</clipPath>
</defs>
</svg>
