<svg width="109" height="104" viewBox="0 0 109 104" fill="none" xmlns="http://www.w3.org/2000/svg">
<path fill-rule="evenodd" clip-rule="evenodd" d="M67.9722 55.8274C67.9039 54.9211 68.3019 53.8654 68.4609 52.9684C68.7954 51.0961 69.0366 49.1941 69.198 47.3005C69.6652 41.8294 69.3656 36.3291 68.267 30.9136C67.0538 24.9258 64.3069 18.8127 60.7102 13.9379C59.6896 12.5557 58.6284 11.2013 57.4934 9.90465C56.8354 9.1513 55.8884 8.47161 55.4065 7.59414C60.1193 3.71049 65.5143 0.970804 71.6959 0.223931C84.645 -1.34618 96.5127 6.65861 102.796 17.5289C103.881 19.4052 104.98 21.3998 105.654 23.4795C106.736 26.815 107.674 30.1605 108.008 33.6477C109.347 47.6089 104.748 61.6104 97.7737 73.6612C95.8859 76.9235 93.6008 79.9297 91.4227 82.9882C87.0831 89.0869 79.8266 96.9638 72.638 99.3497C71.0352 99.881 69.2726 100.096 67.643 99.615C63.6127 98.4251 62.661 93.7567 64.4325 90.3516C66.343 86.6845 69.3197 83.8124 72.0104 80.7508C75.3135 76.9914 78.4845 73.1695 81.2343 68.9675C83.2974 65.8147 85.5077 61.844 85.0789 57.9674C84.8049 55.4914 82.645 55.0656 80.594 55.016C79.1162 54.9807 77.6259 55.4204 76.1833 55.7234C74.49 56.0797 72.7815 56.2894 71.0662 56.2255C70.1668 56.1916 68.7563 56.3205 67.9722 55.8274ZM26.9217 102.989C23.7723 104.061 20.2864 103.801 18.3972 100.789C17.7642 99.7788 17.3676 98.4977 17.4258 97.2954C17.4833 96.12 17.9547 94.9022 18.4719 93.8508C20.1467 90.4569 23.0312 87.766 25.4897 84.9743C28.893 81.1047 32.2354 77.2023 35.0534 72.8575C37.1767 69.5799 39.7252 65.2851 38.9141 61.2391C38.5236 59.2916 36.4846 58.6027 34.7203 58.6936C32.8123 58.7944 31.0042 59.3452 29.1235 59.6401C26.6298 60.0328 24.2085 60.068 21.7322 59.6174C12.3882 57.9218 5.25515 49.8724 1.77334 41.5242C0.806487 39.2056 0.264865 36.5789 0.0936039 34.0897C-1.08532 16.9972 13.2644 2.90193 30.3873 3.78112C47.0517 4.63605 59.6439 20.0184 61.7517 35.7954C64.2479 54.4654 55.8503 73.669 44.2928 88.0753C39.8722 93.587 33.7599 100.657 26.9217 102.989Z" fill="#9C5E91" stroke="#9DBFC4" stroke-width="0.0532139" stroke-linejoin="round"/>
</svg>
